<svg id="Group_321" data-name="Group 321" xmlns="http://www.w3.org/2000/svg" width="362.197" height="216.4" viewBox="0 0 362.197 216.4">
  <defs>
    <style>
      .cls-1 {
        fill: #2a2a2a;
      }

      .cls-2 {
        fill: #263238;
      }

      .cls-3 {
        fill: #004990;
      }

      .cls-4 {
        fill: #ffbe9d;
      }

      .cls-5 {
        fill: #ffd19d;
      }

      .cls-6 {
        fill: #eb996e;
      }

      .cls-7 {
        fill: #269996;
      }

      .cls-8 {
        fill: #455a64;
      }

      .cls-9 {
        opacity: 0.3;
      }

      .cls-10 {
        fill: #f5f5f5;
      }
    </style>
  </defs>
  <g id="Group_95" data-name="Group 95" transform="translate(245.203 119.977)">
    <g id="Group_84" data-name="Group 84">
      <g id="Group_81" data-name="Group 81">
        <path id="Path_36" data-name="Path 36" class="cls-1" d="M452.453,325.28a11.125,11.125,0,0,1,10.831-9.337c23.429-.312,83.086-.851,86.286,1.691,3.987,3.167,6.071,4.787,5.759,9.812-.287,4.615-5.32,84.311-5.32,84.311H438.366Z" transform="translate(-438.366 -315.67)"/>
      </g>
      <g id="Group_83" data-name="Group 83" transform="translate(98.212 6.161)">
        <g id="Group_82" data-name="Group 82">
          <path id="Path_37" data-name="Path 37" class="cls-2" d="M583.862,414.719a1.162,1.162,0,0,1-.032-.235c-.015-.174-.035-.4-.059-.691-.046-.629-.111-1.52-.194-2.658-.087-1.154-.178-2.568-.229-4.211s-.163-3.513-.164-5.583q-.017-1.554-.037-3.249c-.009-1.13.029-2.305.041-3.522.01-2.434.143-5.032.258-7.767.309-5.464.828-11.464,1.665-17.726.866-6.261,1.969-12.183,3.131-17.532.619-2.667,1.185-5.206,1.826-7.556.312-1.177.59-2.319.9-3.405l.9-3.122c.555-2,1.155-3.77,1.65-5.338s.952-2.908,1.345-4l.9-2.51.241-.65a1.227,1.227,0,0,1,.094-.217,1.1,1.1,0,0,1-.06.229l-.208.661-.834,2.53c-.372,1.1-.817,2.439-1.288,4.013s-1.06,3.35-1.6,5.348q-.42,1.494-.88,3.124c-.3,1.087-.575,2.23-.88,3.406-.628,2.35-1.182,4.888-1.792,7.553-1.144,5.346-2.235,11.26-3.1,17.51-.836,6.252-1.364,12.241-1.69,17.7-.123,2.73-.268,5.324-.29,7.755-.02,1.215-.064,2.388-.062,3.517s.01,2.211.014,3.245c-.014,2.068.073,3.936.112,5.579s.1,3.055.169,4.211c.055,1.138.1,2.03.128,2.661.01.29.018.518.024.693A1.172,1.172,0,0,1,583.862,414.719Z" transform="translate(-583.146 -324.752)"/>
        </g>
      </g>
    </g>
    <g id="Group_89" data-name="Group 89" transform="translate(21.269 30.021)">
      <g id="Group_85" data-name="Group 85" transform="translate(11.791 10.262)">
        <path id="Path_38" data-name="Path 38" class="cls-2" d="M490.184,375.157c0-.012.055-.034.17-.066a1.636,1.636,0,0,1,.521-.029,2.362,2.362,0,0,1,1.633.965,2.676,2.676,0,0,1,.165,2.781,3.469,3.469,0,0,1-1.092,1.308,3.327,3.327,0,0,1-1.73.6,2.788,2.788,0,0,1-1.781-.464,2.253,2.253,0,0,1-.925-1.452,3.031,3.031,0,0,1,.855-2.673c1.254-1.07,2.365-1.108,2.341-1-.006.013-.062.006-.172.031a3.092,3.092,0,0,0-.471.161,4.879,4.879,0,0,0-1.523.988,2.815,2.815,0,0,0-.711,2.431,1.935,1.935,0,0,0,.8,1.233,2.475,2.475,0,0,0,1.562.395,3.023,3.023,0,0,0,1.55-.533,3.189,3.189,0,0,0,1-1.169,2.434,2.434,0,0,0-.075-2.492,2.32,2.32,0,0,0-1.45-.975A6.535,6.535,0,0,0,490.184,375.157Z" transform="translate(-487.102 -375.054)"/>
      </g>
      <g id="Group_86" data-name="Group 86" transform="translate(17.064)">
        <path id="Path_39" data-name="Path 39" class="cls-2" d="M510.2,360.167a29.235,29.235,0,0,0-3,.032,13.748,13.748,0,0,0-11.262,7.889,29,29,0,0,0-1.055,2.807,3.118,3.118,0,0,1,.124-.8,11.893,11.893,0,0,1,.7-2.107,13.369,13.369,0,0,1,11.47-8.035,11.929,11.929,0,0,1,2.22.059A3.083,3.083,0,0,1,510.2,360.167Z" transform="translate(-494.875 -359.926)"/>
      </g>
      <g id="Group_87" data-name="Group 87" transform="translate(0 15.235)">
        <path id="Path_40" data-name="Path 40" class="cls-2" d="M469.723,388.127a1.943,1.943,0,0,1,.261-.576,9.006,9.006,0,0,1,.984-1.414,10.48,10.48,0,0,1,10.3-3.511,9.013,9.013,0,0,1,1.642.519,1.955,1.955,0,0,1,.558.3c-.024.061-.841-.321-2.248-.571a10.887,10.887,0,0,0-10.065,3.43C470.193,387.359,469.779,388.161,469.723,388.127Z" transform="translate(-469.72 -382.385)"/>
      </g>
      <g id="Group_88" data-name="Group 88" transform="translate(16.507 15.825)">
        <path id="Path_41" data-name="Path 41" class="cls-2" d="M499.155,391.181a4.162,4.162,0,0,1-1.148-.83,12.8,12.8,0,0,1-3.665-5.707,4.207,4.207,0,0,1-.277-1.389,18.13,18.13,0,0,0,5.09,7.926Z" transform="translate(-494.053 -383.254)"/>
      </g>
    </g>
    <g id="Group_94" data-name="Group 94" transform="translate(58.973 30.964)">
      <g id="Group_90" data-name="Group 90" transform="translate(11.791 10.263)">
        <path id="Path_42" data-name="Path 42" class="cls-2" d="M545.765,376.548c0-.012.054-.034.17-.066a1.641,1.641,0,0,1,.521-.029,2.364,2.364,0,0,1,1.634.965,2.677,2.677,0,0,1,.165,2.781,3.477,3.477,0,0,1-1.091,1.308,3.327,3.327,0,0,1-1.73.6,2.789,2.789,0,0,1-1.781-.463,2.252,2.252,0,0,1-.924-1.452,3.031,3.031,0,0,1,.855-2.673c1.254-1.07,2.366-1.108,2.342-1-.006.013-.062.006-.172.031a3.093,3.093,0,0,0-.471.161,4.877,4.877,0,0,0-1.523.988,2.814,2.814,0,0,0-.711,2.431,1.935,1.935,0,0,0,.8,1.233,2.474,2.474,0,0,0,1.562.394,3.018,3.018,0,0,0,1.55-.533,3.194,3.194,0,0,0,1-1.169,2.433,2.433,0,0,0-.076-2.492,2.315,2.315,0,0,0-1.449-.975A6.473,6.473,0,0,0,545.765,376.548Z" transform="translate(-542.683 -376.445)"/>
      </g>
      <g id="Group_91" data-name="Group 91" transform="translate(17.064)">
        <path id="Path_43" data-name="Path 43" class="cls-2" d="M565.777,361.558a29.018,29.018,0,0,0-3,.032,13.75,13.75,0,0,0-11.263,7.889,29.55,29.55,0,0,0-1.055,2.807,3.116,3.116,0,0,1,.125-.8,11.905,11.905,0,0,1,.7-2.106,13.368,13.368,0,0,1,11.47-8.034,11.886,11.886,0,0,1,2.22.059A3.064,3.064,0,0,1,565.777,361.558Z" transform="translate(-550.455 -361.316)"/>
      </g>
      <g id="Group_92" data-name="Group 92" transform="translate(0 15.236)">
        <path id="Path_44" data-name="Path 44" class="cls-2" d="M525.3,389.518a1.948,1.948,0,0,1,.26-.576,9.055,9.055,0,0,1,.984-1.414,10.48,10.48,0,0,1,10.3-3.511,9.016,9.016,0,0,1,1.643.519,1.925,1.925,0,0,1,.557.3c-.024.061-.841-.322-2.248-.571a10.889,10.889,0,0,0-10.065,3.43C525.773,388.75,525.36,389.552,525.3,389.518Z" transform="translate(-525.301 -383.776)"/>
      </g>
      <g id="Group_93" data-name="Group 93" transform="translate(16.506 15.825)">
        <path id="Path_45" data-name="Path 45" class="cls-2" d="M554.735,392.571a4.174,4.174,0,0,1-1.148-.83,12.8,12.8,0,0,1-3.664-5.707,4.161,4.161,0,0,1-.277-1.39,18.133,18.133,0,0,0,5.09,7.927Z" transform="translate(-549.634 -384.644)"/>
      </g>
    </g>
  </g>
  <g id="Group_127" data-name="Group 127" transform="translate(0 17.669)">
    <g id="Group_120" data-name="Group 120" transform="translate(1.098)">
      <g id="Group_112" data-name="Group 112">
        <g id="Group_111" data-name="Group 111">
          <g id="Group_98" data-name="Group 98" transform="translate(6.37 86.6)">
            <g id="Group_97" data-name="Group 97">
              <g id="Group_96" data-name="Group 96">
                <path id="Path_46" data-name="Path 46" class="cls-2" d="M112.748,385.878a.722.722,0,0,1-.7-.539L87.933,293.419a.722.722,0,1,1,1.4-.367l24.118,91.919a.722.722,0,0,1-.516.883A.687.687,0,0,1,112.748,385.878Z" transform="translate(-87.909 -292.513)"/>
              </g>
            </g>
          </g>
          <g id="Group_101" data-name="Group 101" transform="translate(0 88.874)">
            <g id="Group_100" data-name="Group 100">
              <g id="Group_99" data-name="Group 99">
                <path id="Path_47" data-name="Path 47" class="cls-2" d="M103.357,389.231a.721.721,0,0,1-.7-.539l-24.118-91.92a.722.722,0,1,1,1.4-.367l24.118,91.92a.722.722,0,0,1-.516.883A.688.688,0,0,1,103.357,389.231Z" transform="translate(-78.518 -295.865)"/>
              </g>
            </g>
          </g>
          <g id="Group_104" data-name="Group 104" transform="translate(1.759 1.587)">
            <g id="Group_103" data-name="Group 103">
              <g id="Group_102" data-name="Group 102">
                <path id="Path_48" data-name="Path 48" class="cls-2" d="M82.27,251.394l-1.16-.862,61.928-83.341,56.489,10.823-.272,1.419-55.6-10.652Z" transform="translate(-81.11 -167.19)"/>
              </g>
            </g>
          </g>
          <g id="Group_107" data-name="Group 107" transform="translate(7.104 4.217)">
            <g id="Group_106" data-name="Group 106" transform="translate(0 0)">
              <g id="Group_105" data-name="Group 105">
                <rect id="Rectangle_65" data-name="Rectangle 65" class="cls-2" width="102.369" height="1.445" transform="matrix(0.595, -0.804, 0.804, 0.595, 0, 82.271)"/>
              </g>
            </g>
          </g>
          <g id="Group_110" data-name="Group 110" transform="translate(61.925)">
            <g id="Group_109" data-name="Group 109">
              <g id="Group_108" data-name="Group 108">
                <path id="Path_49" data-name="Path 49" class="cls-1" d="M170.023,170.267a4.1,4.1,0,1,0,2.559-5.2A4.1,4.1,0,0,0,170.023,170.267Z" transform="translate(-169.804 -164.852)"/>
              </g>
            </g>
          </g>
        </g>
      </g>
      <g id="Group_119" data-name="Group 119" transform="translate(99.733 1.536)">
        <g id="Group_114" data-name="Group 114" transform="translate(16.759)">
          <g id="Group_113" data-name="Group 113">
            <path id="Path_50" data-name="Path 50" class="cls-3" d="M251.258,173.331l-1.012-5.887,4.36-.328.315,5.687Z" transform="translate(-250.245 -167.116)"/>
          </g>
        </g>
        <g id="Group_116" data-name="Group 116" transform="translate(16.759)">
          <g id="Group_115" data-name="Group 115">
            <path id="Path_51" data-name="Path 51" class="cls-1" d="M251.258,173.331l-1.012-5.887,4.36-.328.315,5.687Z" transform="translate(-250.245 -167.116)"/>
          </g>
        </g>
        <g id="Group_118" data-name="Group 118" transform="translate(0 4.318)">
          <g id="Group_117" data-name="Group 117">
            <path id="Path_52" data-name="Path 52" class="cls-1" d="M239.744,174.972l-4.027,21.844L225.539,225.68l57.349-8.272-23.145-25.195-9.664-18.732-10.335,1.491" transform="translate(-225.539 -173.481)"/>
          </g>
        </g>
      </g>
    </g>
    <g id="Group_123" data-name="Group 123" transform="translate(0 83.682)">
      <g id="Group_122" data-name="Group 122">
        <g id="Group_121" data-name="Group 121">
          <path id="Path_53" data-name="Path 53" class="cls-1" d="M76.9,292.761a4.55,4.55,0,1,0,4.55-4.55A4.55,4.55,0,0,0,76.9,292.761Z" transform="translate(-76.899 -288.211)"/>
        </g>
      </g>
    </g>
    <g id="Group_126" data-name="Group 126" transform="translate(14.106 179.242)">
      <g id="Group_125" data-name="Group 125">
        <g id="Group_124" data-name="Group 124">
          <path id="Path_54" data-name="Path 54" class="cls-1" d="M97.74,448.194c-.015-.3-.046-.6-.046-.91a18.2,18.2,0,0,1,36.4,0c0,.307-.031.606-.046.91Z" transform="translate(-97.694 -429.082)"/>
        </g>
      </g>
    </g>
  </g>
  <g id="Group_302" data-name="Group 302" transform="translate(107.18)">
    <g id="Group_136" data-name="Group 136" transform="translate(0 176.669)">
      <path id="Path_55" data-name="Path 55" class="cls-4" d="M243.866,447.213c-.224.045-1.176,1.014.187,2.556s9.58,5.752,11.1,3.234-2.143-4.266-2.143-4.266Z" transform="translate(-237.612 -414.672)"/>
      <g id="Group_129" data-name="Group 129" transform="translate(0 4.576)">
        <g id="Group_128" data-name="Group 128">
          <path id="Path_56" data-name="Path 56" class="cls-5" d="M250.18,431.238s8.48-.937,11.94-.493a12.3,12.3,0,0,0,10.1-4,13.544,13.544,0,0,0,2.98-5.994l5.4-3.776s.583-12.828-7.969-10.755l-9.995.35s-19.661,3.257-22.706,5.706c0,0-3.7,3.6-4.782,4.993-.406.526-.756,5.811,3,7.614,0,0-2.214,2.834-.263,4.43l.919.7s-1.269,2.824-.076,3.634,10.628,3.673,13.309,1.807-.425-4.019-1.848-4.208" transform="translate(-234.898 -405.989)"/>
        </g>
      </g>
      <g id="Group_130" data-name="Group 130" transform="translate(3.876 22.963)">
        <path id="Path_57" data-name="Path 57" class="cls-6" d="M241.45,433.1a7.79,7.79,0,0,1,1.11.119c.712.092,1.742.217,3.019.31.639.047,1.339.082,2.091.1s1.558-.01,2.42.058a5.016,5.016,0,0,1,2.595.823,2.877,2.877,0,0,1,1.268,2.615,2.242,2.242,0,0,1-.758,1.342,3.945,3.945,0,0,1-1.283.713,11.716,11.716,0,0,1-2.656.49,23.857,23.857,0,0,1-4.532-.088c-1.282-.134-2.309-.306-3.018-.426a6.522,6.522,0,0,1-1.094-.229,6.973,6.973,0,0,1,1.113.094c.714.078,1.745.212,3.021.313a25.366,25.366,0,0,0,4.479.012,11.7,11.7,0,0,0,2.57-.492,3.616,3.616,0,0,0,1.167-.651,1.89,1.89,0,0,0,.641-1.132,2.548,2.548,0,0,0-1.125-2.283,4.746,4.746,0,0,0-2.416-.777c-.832-.075-1.642-.053-2.4-.09s-1.462-.08-2.1-.142c-1.282-.125-2.313-.29-3.019-.423A5.975,5.975,0,0,1,241.45,433.1Z" transform="translate(-240.613 -433.093)"/>
      </g>
      <g id="Group_131" data-name="Group 131" transform="translate(3.531 16.834)">
        <path id="Path_58" data-name="Path 58" class="cls-6" d="M240.6,424.065a7.609,7.609,0,0,1,1.106.125c.708.094,1.734.229,3.005.339s2.789.2,4.475.2a5.891,5.891,0,0,1,2.677.4,2.139,2.139,0,0,1,1.02,1.091,2.711,2.711,0,0,1,.14,1.519,3.631,3.631,0,0,1-1.714,2.35,5.864,5.864,0,0,1-2.574.838,25.908,25.908,0,0,1-4.512-.21l-3.015-.306a6.774,6.774,0,0,1-1.1-.16,6.677,6.677,0,0,1,1.113.023l3.025.195a28.118,28.118,0,0,0,4.457.134,5.579,5.579,0,0,0,2.423-.806,3.307,3.307,0,0,0,1.552-2.122,2,2,0,0,0-.971-2.24,5.7,5.7,0,0,0-2.519-.383,44.688,44.688,0,0,1-4.5-.273c-1.275-.142-2.3-.315-3-.452A6.06,6.06,0,0,1,240.6,424.065Z" transform="translate(-240.104 -424.059)"/>
      </g>
      <g id="Group_132" data-name="Group 132" transform="translate(6.809 14.476)">
        <path id="Path_59" data-name="Path 59" class="cls-6" d="M246.528,423.7a63.029,63.029,0,0,0-1.584-3.108c.067-.064.676.488,1.128,1.382A2.944,2.944,0,0,1,246.528,423.7Z" transform="translate(-244.935 -420.583)"/>
      </g>
      <g id="Group_134" data-name="Group 134" transform="translate(2.459)">
        <path id="Path_60" data-name="Path 60" class="cls-4" d="M270.484,404.643l-8.017-1.067s-22.659-4.619-22.88-4.022-1.338.807-.5,3.233,13.914,4.585,14.5,5.356,1,5.273,6.134,7.337,8.315,1.372,8.315,1.372" transform="translate(-238.606 -399.326)"/>
        <g id="Group_133" data-name="Group 133">
          <path id="Path_61" data-name="Path 61" class="cls-6" d="M267.949,416.769a.561.561,0,0,1-.173.048c-.116.022-.29.051-.52.072a11.755,11.755,0,0,1-2.015,0,19,19,0,0,1-7.082-2.087,9.09,9.09,0,0,1-3.531-3.69,20.607,20.607,0,0,1-1.091-2.636,1.653,1.653,0,0,0-.148-.3.611.611,0,0,0-.239-.15,6.914,6.914,0,0,0-.688-.242c-.476-.146-.967-.277-1.465-.407-1.993-.518-4.1-1.018-6.262-1.653-1.079-.317-2.173-.667-3.257-1.105a11.121,11.121,0,0,1-1.594-.79,3.767,3.767,0,0,1-.729-.573,1.574,1.574,0,0,1-.279-.417,3.664,3.664,0,0,1-.152-.441,3.317,3.317,0,0,1-.111-1.848,2.16,2.16,0,0,1,.492-.8,1.292,1.292,0,0,0,.223-.311c.017-.026-.016.012.054-.088a.227.227,0,0,1,.132-.079.68.68,0,0,1,.147-.024c.082,0,.16,0,.235,0,1.185.075,2.3.277,3.416.45,2.218.366,4.348.762,6.375,1.144,4.054.77,7.7,1.5,10.752,2.133.764.151,1.493.324,2.178.438l1.964.275,3.146.448,1.986.3.516.087a.658.658,0,0,1,.174.041.7.7,0,0,1-.179-.006l-.52-.052-2-.232-3.156-.39-1.971-.248c-.7-.109-1.422-.271-2.19-.414l-10.763-2.058c-2.028-.374-4.158-.762-6.37-1.123-1.1-.17-2.241-.37-3.371-.44-.07,0-.137,0-.2,0a.412.412,0,0,0-.069.009c-.007-.011.007.025-.017-.024s-.009-.056-.033-.081a.064.064,0,0,0-.03-.018c.269.1.071.037.129.064l-.014.031a1.6,1.6,0,0,1-.279.4,1.8,1.8,0,0,0-.422.68,3,3,0,0,0,.113,1.644,1.557,1.557,0,0,0,.351.716,3.409,3.409,0,0,0,.657.515,10.726,10.726,0,0,0,1.54.762c1.065.431,2.149.781,3.222,1.1,2.146.636,4.25,1.142,6.246,1.67.5.133.992.267,1.476.418a7.18,7.18,0,0,1,.722.258.877.877,0,0,1,.366.257,1.824,1.824,0,0,1,.179.359,20.766,20.766,0,0,0,1.064,2.619,8.86,8.86,0,0,0,3.4,3.611,17.386,17.386,0,0,0,3.866,1.556,17.984,17.984,0,0,0,3.1.609,13.507,13.507,0,0,0,2,.066c.229-.01.4-.026.519-.037A.852.852,0,0,1,267.949,416.769Z" transform="translate(-238.523 -399.243)"/>
        </g>
      </g>
      <g id="Group_135" data-name="Group 135" transform="translate(4.71 29.408)">
        <path id="Path_62" data-name="Path 62" class="cls-6" d="M249.944,442.611a2.621,2.621,0,0,1,.834.04,7.907,7.907,0,0,1,2.188.649,7.166,7.166,0,0,1,1.369.811,2.4,2.4,0,0,1,1,1.574,1.956,1.956,0,0,1-1.006,1.794,3.774,3.774,0,0,1-2.151.445,40.341,40.341,0,0,1-7.407-1.091,22.5,22.5,0,0,1-2.169-.667,3.5,3.5,0,0,1-.764-.332,4.15,4.15,0,0,1,.807.2c.512.147,1.256.348,2.185.556a48.325,48.325,0,0,0,7.36.98,3.47,3.47,0,0,0,1.957-.386,1.632,1.632,0,0,0,.864-1.469,2.129,2.129,0,0,0-.864-1.376,7.235,7.235,0,0,0-1.292-.813A11.917,11.917,0,0,0,249.944,442.611Z" transform="translate(-241.842 -442.595)"/>
      </g>
    </g>
    <g id="Group_137" data-name="Group 137" transform="translate(34.31 83.02)">
      <path id="Path_63" data-name="Path 63" class="cls-7" d="M322.962,337.951s10.047-16.538,12.305-27.454,13.927-28.23,17.691-32.746,18.82-9.787,18.82-9.787l5.552-2.994,43-3.781s28.606,3.011,37.263,10.915,15.433,25.971,15.433,35,8.742,87.264,8.742,87.264l-105.969-.14,2.376-38.569s-12.8-8.657-16.185-16.185-1.506-3.764-1.506-3.764-12.014,25.54-16.154,28.551-52.264,17.78-52.264,17.78l-6.591-25.256Z" transform="translate(-285.477 -261.19)"/>
    </g>
    <g id="Group_138" data-name="Group 138" transform="translate(128.003 96.443)">
      <path id="Path_64" data-name="Path 64" class="cls-7" d="M492.5,281.623c-1.161.36-15.513,37.432-16.524,40.805s0,24.618,0,24.618l4.721,8.768s-1.349,6.408-.337,9.443L459.112,369.3s-5.4-3.709-10.453,0l-25.064,2.119s7.358.085,5.167,11.37c-2.147,11.056-3.778,13.488-3.778,13.488l88.086-2.011s9.784-.484,8.293-19.3-5.691-70.723-5.691-70.723S509.25,276.428,492.5,281.623Z" transform="translate(-423.595 -280.977)"/>
    </g>
    <g id="Group_140" data-name="Group 140" transform="translate(174.867 111.236)">
      <g id="Group_139" data-name="Group 139">
        <path id="Path_65" data-name="Path 65" class="cls-2" d="M498,351.1a2.648,2.648,0,0,1-.209-.456l-.534-1.335c-.233-.58-.509-1.293-.781-2.138s-.629-1.792-.918-2.871c-.312-1.073-.655-2.249-.939-3.533-.329-1.273-.583-2.655-.86-4.107a69.806,69.806,0,0,1-.741-19.167c.175-1.469.316-2.867.554-4.16.111-.648.2-1.277.32-1.875s.246-1.169.362-1.717c.211-1.1.494-2.07.713-2.929s.437-1.593.633-2.186c.184-.567.332-1.022.444-1.368a2.618,2.618,0,0,1,.178-.469,2.691,2.691,0,0,1-.11.49c-.1.35-.222.81-.38,1.385-.175.6-.379,1.333-.573,2.2s-.465,1.835-.66,2.933q-.162.82-.339,1.714c-.114.6-.193,1.224-.3,1.871-.225,1.29-.354,2.684-.519,4.146a72.536,72.536,0,0,0,.737,19.08c.267,1.447.509,2.825.825,4.1.271,1.281.6,2.456.894,3.53.272,1.081.608,2.032.865,2.878s.509,1.567.723,2.152l.471,1.357A2.756,2.756,0,0,1,498,351.1Z" transform="translate(-492.68 -302.785)"/>
      </g>
    </g>
    <g id="Group_142" data-name="Group 142" transform="translate(183.884 181.11)">
      <g id="Group_141" data-name="Group 141">
        <path id="Path_66" data-name="Path 66" class="cls-2" d="M532.92,424.43a1.262,1.262,0,0,1-.226-.259l-.59-.779c-.248-.343-.558-.758-.942-1.221s-.792-1.013-1.3-1.572c-.5-.572-1.041-1.2-1.667-1.827-.6-.655-1.3-1.3-2.023-1.99a46.259,46.259,0,0,0-10.66-7.373c-.9-.431-1.751-.858-2.576-1.191-.812-.364-1.588-.654-2.3-.916-.7-.281-1.361-.471-1.931-.664s-1.067-.339-1.475-.451l-.937-.277a1.258,1.258,0,0,1-.321-.119,1.212,1.212,0,0,1,.338.05l.955.213c.415.091.921.216,1.5.4s1.245.35,1.957.617c.72.248,1.505.527,2.327.881.836.323,1.7.742,2.608,1.169a43.987,43.987,0,0,1,10.736,7.426c.721.7,1.417,1.359,2.014,2.027.621.644,1.159,1.281,1.646,1.867s.9,1.134,1.269,1.613.665.906.9,1.262l.536.818A1.235,1.235,0,0,1,532.92,424.43Z" transform="translate(-505.972 -405.788)"/>
      </g>
    </g>
    <g id="Group_144" data-name="Group 144" transform="translate(199.295 187.36)">
      <g id="Group_143" data-name="Group 143">
        <path id="Path_67" data-name="Path 67" class="cls-2" d="M547.643,422.45c-.051.048-.831-.842-2.3-2.038a23.374,23.374,0,0,0-2.722-1.9,23.2,23.2,0,0,0-7.562-2.869,23.5,23.5,0,0,0-3.3-.384c-1.893-.079-3.065.069-3.072,0a3.8,3.8,0,0,1,.818-.139,8.554,8.554,0,0,1,.971-.083c.379-.014.813-.05,1.291-.027a20.947,20.947,0,0,1,3.348.313,21.867,21.867,0,0,1,7.672,2.91,20.992,20.992,0,0,1,2.714,1.986c.373.3.673.615.948.877a8.66,8.66,0,0,1,.672.705A3.749,3.749,0,0,1,547.643,422.45Z" transform="translate(-528.689 -415.003)"/>
      </g>
    </g>
    <g id="Group_146" data-name="Group 146" transform="translate(187.869 178.201)">
      <g id="Group_145" data-name="Group 145">
        <path id="Path_68" data-name="Path 68" class="cls-2" d="M534.081,405.71c-.045.063-1.083-.763-2.981-1.7a15.948,15.948,0,0,0-1.584-.691c-.572-.246-1.211-.428-1.876-.64a21.538,21.538,0,0,0-9-.616c-.688.119-1.346.212-1.946.377a16.1,16.1,0,0,0-1.663.469c-2.009.671-3.15,1.348-3.186,1.279a4.61,4.61,0,0,1,.792-.483,8.066,8.066,0,0,1,.975-.486,13.286,13.286,0,0,1,1.337-.545,15,15,0,0,1,1.674-.518,19.57,19.57,0,0,1,1.969-.415,20.732,20.732,0,0,1,9.137.625,19.7,19.7,0,0,1,1.894.68,14.917,14.917,0,0,1,1.587.741,13.161,13.161,0,0,1,1.25.722,8.068,8.068,0,0,1,.9.615A4.555,4.555,0,0,1,534.081,405.71Z" transform="translate(-511.846 -401.501)"/>
      </g>
    </g>
    <g id="Group_148" data-name="Group 148" transform="translate(152.196 185.902)">
      <g id="Group_147" data-name="Group 147">
        <path id="Path_69" data-name="Path 69" class="cls-2" d="M465.649,437.164a31.361,31.361,0,0,0,.626-3.774,24.681,24.681,0,0,0-.033-4.142,33.03,33.03,0,0,0-.886-5,34.116,34.116,0,0,0-1.689-4.789,25.49,25.49,0,0,0-2.016-3.62,34.511,34.511,0,0,0-2.39-2.989,5.805,5.805,0,0,1,.776.685,8.023,8.023,0,0,1,.828.891l.493.579c.164.213.324.449.5.691a23.6,23.6,0,0,1,2.106,3.626,31.95,31.95,0,0,1,1.735,4.834,31.117,31.117,0,0,1,.869,5.06,22.935,22.935,0,0,1-.042,4.193q-.05.442-.094.847l-.147.746a8.274,8.274,0,0,1-.286,1.182A5.739,5.739,0,0,1,465.649,437.164Z" transform="translate(-459.259 -412.853)"/>
      </g>
    </g>
    <g id="Group_150" data-name="Group 150" transform="translate(138.171 107.582)">
      <g id="Group_149" data-name="Group 149">
        <path id="Path_70" data-name="Path 70" class="cls-2" d="M444.231,374.57a.838.838,0,0,1-.043-.2c-.024-.151-.054-.341-.092-.58l-.32-2.233c-.275-1.94-.637-4.752-1.054-8.23-.836-6.957-1.832-16.587-2.612-27.25s-1.186-20.341-1.368-27.345c-.092-3.5-.141-6.337-.151-8.3,0-.96,0-1.715-.007-2.256l.007-.587a.85.85,0,0,1,.014-.2.837.837,0,0,1,.022.2c.007.152.016.345.028.586.018.541.042,1.3.073,2.255.063,1.983.153,4.809.263,8.29.245,7,.7,16.667,1.47,27.328s1.735,20.286,2.508,27.247c.4,3.461.717,6.27.942,8.241.109.954.193,1.7.254,2.242l.058.584A.839.839,0,0,1,444.231,374.57Z" transform="translate(-438.584 -297.397)"/>
      </g>
    </g>
    <g id="Group_152" data-name="Group 152" transform="translate(96.695 132.094)">
      <g id="Group_151" data-name="Group 151">
        <path id="Path_71" data-name="Path 71" class="cls-2" d="M389.963,359.471a6.877,6.877,0,0,1-.461-1.037c-.27-.677-.675-1.651-1.185-2.849-1.02-2.4-2.54-5.659-4.354-9.2l-4.692-9.046c-.59-1.163-1.061-2.108-1.372-2.768a6.968,6.968,0,0,1-.455-1.04,7,7,0,0,1,.577.977l1.471,2.715c1.235,2.3,2.967,5.457,4.786,9s3.307,6.835,4.27,9.263c.482,1.213.852,2.2,1.083,2.9A7.142,7.142,0,0,1,389.963,359.471Z" transform="translate(-377.441 -333.533)"/>
      </g>
    </g>
    <g id="Group_154" data-name="Group 154" transform="translate(89.697 138.511)">
      <g id="Group_153" data-name="Group 153">
        <path id="Path_72" data-name="Path 72" class="cls-2" d="M381.23,349.979a2.143,2.143,0,0,1-.614-.118c-.39-.1-.948-.259-1.629-.482a40.159,40.159,0,0,1-10.023-4.964c-.59-.408-1.058-.752-1.37-1s-.48-.4-.466-.417a20.923,20.923,0,0,1,1.973,1.212c1.209.758,2.909,1.758,4.858,2.725s3.775,1.71,5.111,2.212A20.988,20.988,0,0,1,381.23,349.979Z" transform="translate(-367.126 -342.992)"/>
      </g>
    </g>
    <g id="Group_156" data-name="Group 156" transform="translate(74.714 161.164)">
      <g id="Group_155" data-name="Group 155">
        <path id="Path_73" data-name="Path 73" class="cls-2" d="M365.029,383.887a3.926,3.926,0,0,1-.729-.444c-.451-.308-1.117-.737-1.95-1.243a40.189,40.189,0,0,0-14.185-5.311c-.961-.166-1.745-.279-2.287-.343a3.945,3.945,0,0,1-.84-.144,4.027,4.027,0,0,1,.853.007c.549.022,1.34.1,2.313.233a35.471,35.471,0,0,1,14.279,5.347c.822.537,1.469,1,1.9,1.344A4,4,0,0,1,365.029,383.887Z" transform="translate(-345.038 -376.386)"/>
      </g>
    </g>
    <g id="Group_158" data-name="Group 158" transform="translate(138.196 83.079)">
      <g id="Group_157" data-name="Group 157">
        <path id="Path_74" data-name="Path 74" class="cls-2" d="M468.472,261.277a3.183,3.183,0,0,1-.039.551q-.067.588-.18,1.574c-.176,1.363-.421,3.339-.835,5.765a73.829,73.829,0,0,1-1.9,8.436,39.43,39.43,0,0,1-4.266,9.689,30.1,30.1,0,0,1-3.536,4.531l-.138.15-.125-.168a17.921,17.921,0,0,0-6.438-5.341,17.557,17.557,0,0,0-3.389-1.249,15.412,15.412,0,0,0-3.086-.414,12.785,12.785,0,0,0-4.4.619c-.986.345-1.5.6-1.519.569a2.106,2.106,0,0,1,.37-.2,9.505,9.505,0,0,1,1.11-.486,12.307,12.307,0,0,1,4.443-.729,15.32,15.32,0,0,1,3.143.379,17.549,17.549,0,0,1,3.459,1.237,18.05,18.05,0,0,1,6.585,5.406l-.264-.018a30.162,30.162,0,0,0,3.486-4.48,39.88,39.88,0,0,0,4.253-9.594,78.312,78.312,0,0,0,1.966-8.386c.445-2.415.727-4.384.945-5.741.1-.654.185-1.174.246-1.564A3.214,3.214,0,0,1,468.472,261.277Z" transform="translate(-438.621 -261.277)"/>
      </g>
    </g>
    <g id="Group_159" data-name="Group 159" transform="translate(131.914 74.846)">
      <path id="Path_75" data-name="Path 75" class="cls-7" d="M466.072,257.8l-6.534-8.66-7.1.223L429.36,261.553Z" transform="translate(-429.36 -249.139)"/>
    </g>
    <g id="Group_161" data-name="Group 161" transform="translate(122.083 89.252)">
      <g id="Group_160" data-name="Group 160">
        <path id="Path_76" data-name="Path 76" class="cls-2" d="M430.981,288.918a1.507,1.507,0,0,1-.375-.008,7.666,7.666,0,0,1-1.063-.175,13.253,13.253,0,0,1-3.644-1.557,7.828,7.828,0,0,0-2.478-1.027,7.277,7.277,0,0,0-3.061,0,7.159,7.159,0,0,0-5.122,4.454l-.37.995.029-1.062c.008-.263.015-.545.022-.83.083-5.341.088-10.19.306-13.693.1-1.752.238-3.167.382-4.138.064-.487.138-.862.192-1.115a1.663,1.663,0,0,1,.1-.382c.034.006-.062.539-.154,1.513s-.2,2.384-.269,4.133c-.155,3.5-.119,8.336-.2,13.689-.007.286-.015.57-.022.834l-.342-.068a7.443,7.443,0,0,1,5.388-4.645,7.6,7.6,0,0,1,5.727,1.133,14.206,14.206,0,0,0,3.555,1.64C430.468,288.853,430.985,288.882,430.981,288.918Z" transform="translate(-414.867 -270.376)"/>
      </g>
    </g>
    <g id="Group_285" data-name="Group 285" transform="translate(95.836)">
      <g id="Group_284" data-name="Group 284">
        <g id="Group_180" data-name="Group 180" transform="translate(12.355 5.851)">
          <g id="Group_179" data-name="Group 179">
            <g id="Group_178" data-name="Group 178">
              <g id="Group_169" data-name="Group 169">
                <g id="Group_168" data-name="Group 168">
                  <g id="Group_167" data-name="Group 167">
                    <g id="Group_166" data-name="Group 166">
                      <g id="Group_165" data-name="Group 165">
                        <g id="Group_164" data-name="Group 164">
                          <g id="Group_163" data-name="Group 163">
                            <g id="Group_162" data-name="Group 162">
                              <path id="Path_77" data-name="Path 77" class="cls-5" d="M448.289,174.475v52.008a12.6,12.6,0,0,1-2.964,8.12h0a38.093,38.093,0,0,1-10.443,8.651l-10.491,5.908-8.678-7.747a12.624,12.624,0,0,1-4.2-8.916c-.151-3.789-.149-7.606-.149-7.606s-14.7-1.056-16.083-15.553c-.65-6.827-.855-20.809-.891-33.693a28.2,28.2,0,0,1,25.882-28.173l.414-.035A26.952,26.952,0,0,1,448.289,174.475Z" transform="translate(-394.388 -147.43)"/>
                            </g>
                          </g>
                        </g>
                      </g>
                    </g>
                  </g>
                </g>
              </g>
              <g id="Group_177" data-name="Group 177" transform="translate(16.933 70.312)">
                <g id="Group_176" data-name="Group 176">
                  <g id="Group_175" data-name="Group 175">
                    <g id="Group_174" data-name="Group 174">
                      <g id="Group_173" data-name="Group 173">
                        <g id="Group_172" data-name="Group 172">
                          <g id="Group_171" data-name="Group 171">
                            <g id="Group_170" data-name="Group 170">
                              <path id="Path_78" data-name="Path 78" class="cls-6" d="M419.35,258.023a33.864,33.864,0,0,0,18.476-6.943s-3.608,10.815-18.2,10.706Z" transform="translate(-419.35 -251.08)"/>
                            </g>
                          </g>
                        </g>
                      </g>
                    </g>
                  </g>
                </g>
              </g>
            </g>
          </g>
        </g>
        <g id="Group_255" data-name="Group 255" transform="translate(16.018 27.765)">
          <g id="Group_254" data-name="Group 254">
            <g id="Group_237" data-name="Group 237" transform="translate(0 8.219)">
              <g id="Group_236" data-name="Group 236">
                <g id="Group_235" data-name="Group 235">
                  <g id="Group_198" data-name="Group 198" transform="translate(0 1.399)">
                    <g id="Group_188" data-name="Group 188" transform="translate(1.22 4.379)">
                      <g id="Group_187" data-name="Group 187">
                        <g id="Group_186" data-name="Group 186">
                          <g id="Group_185" data-name="Group 185">
                            <g id="Group_184" data-name="Group 184">
                              <g id="Group_183" data-name="Group 183">
                                <g id="Group_182" data-name="Group 182">
                                  <g id="Group_181" data-name="Group 181">
                                    <path id="Path_79" data-name="Path 79" class="cls-2" d="M401.589,202.418a2.08,2.08,0,0,0,2.172,1.925,1.989,1.989,0,0,0,1.981-2.045,2.081,2.081,0,0,0-2.169-1.927A1.992,1.992,0,0,0,401.589,202.418Z" transform="translate(-401.587 -200.37)"/>
                                  </g>
                                </g>
                              </g>
                            </g>
                          </g>
                        </g>
                      </g>
                    </g>
                    <g id="Group_197" data-name="Group 197">
                      <g id="Group_196" data-name="Group 196">
                        <g id="Group_195" data-name="Group 195">
                          <g id="Group_194" data-name="Group 194">
                            <g id="Group_193" data-name="Group 193">
                              <g id="Group_192" data-name="Group 192">
                                <g id="Group_191" data-name="Group 191">
                                  <g id="Group_190" data-name="Group 190">
                                    <g id="Group_189" data-name="Group 189">
                                      <path id="Path_80" data-name="Path 80" class="cls-2" d="M399.83,196.447c.279.249,1.753-1.043,3.984-1.222,2.226-.211,3.958.8,4.177.508.109-.131-.193-.6-.948-1.057a5.7,5.7,0,0,0-3.371-.741,5.477,5.477,0,0,0-3.143,1.309C399.885,195.828,399.693,196.336,399.83,196.447Z" transform="translate(-399.788 -193.914)"/>
                                    </g>
                                  </g>
                                </g>
                              </g>
                            </g>
                          </g>
                        </g>
                      </g>
                    </g>
                  </g>
                  <g id="Group_216" data-name="Group 216" transform="translate(21.958)">
                    <g id="Group_206" data-name="Group 206" transform="translate(0.483 4.879)">
                      <g id="Group_205" data-name="Group 205">
                        <g id="Group_204" data-name="Group 204">
                          <g id="Group_203" data-name="Group 203">
                            <g id="Group_202" data-name="Group 202">
                              <g id="Group_201" data-name="Group 201">
                                <g id="Group_200" data-name="Group 200">
                                  <g id="Group_199" data-name="Group 199">
                                    <path id="Path_81" data-name="Path 81" class="cls-2" d="M432.871,201.093a2.08,2.08,0,0,0,2.172,1.925,1.989,1.989,0,0,0,1.981-2.045,2.081,2.081,0,0,0-2.17-1.927A1.991,1.991,0,0,0,432.871,201.093Z" transform="translate(-432.869 -199.045)"/>
                                  </g>
                                </g>
                              </g>
                            </g>
                          </g>
                        </g>
                      </g>
                    </g>
                    <g id="Group_215" data-name="Group 215">
                      <g id="Group_214" data-name="Group 214">
                        <g id="Group_213" data-name="Group 213">
                          <g id="Group_212" data-name="Group 212">
                            <g id="Group_211" data-name="Group 211">
                              <g id="Group_210" data-name="Group 210">
                                <g id="Group_209" data-name="Group 209">
                                  <g id="Group_208" data-name="Group 208">
                                    <g id="Group_207" data-name="Group 207">
                                      <path id="Path_82" data-name="Path 82" class="cls-2" d="M432.2,194.385c.279.249,1.756-1.043,3.985-1.222,2.225-.21,3.958.8,4.177.508.109-.13-.191-.6-.949-1.056a5.7,5.7,0,0,0-3.371-.741,5.482,5.482,0,0,0-3.144,1.31C432.256,193.766,432.063,194.274,432.2,194.385Z" transform="translate(-432.158 -191.852)"/>
                                    </g>
                                  </g>
                                </g>
                              </g>
                            </g>
                          </g>
                        </g>
                      </g>
                    </g>
                  </g>
                  <g id="Group_225" data-name="Group 225" transform="translate(9.45 1.076)">
                    <g id="Group_224" data-name="Group 224">
                      <g id="Group_223" data-name="Group 223">
                        <g id="Group_222" data-name="Group 222">
                          <g id="Group_221" data-name="Group 221">
                            <g id="Group_220" data-name="Group 220">
                              <g id="Group_219" data-name="Group 219">
                                <g id="Group_218" data-name="Group 218">
                                  <g id="Group_217" data-name="Group 217">
                                    <path id="Path_83" data-name="Path 83" class="cls-2" d="M419.543,212.1a14.818,14.818,0,0,0-3.677-.353c-.574-.012-1.123-.081-1.251-.461a2.911,2.911,0,0,1,.241-1.72l1.325-4.476c1.828-6.368,3.1-11.585,2.844-11.656s-1.947,5.032-3.775,11.4q-.655,2.354-1.252,4.5a3.309,3.309,0,0,0-.11,2.26,1.432,1.432,0,0,0,1.005.755,3.884,3.884,0,0,0,.978.055A14.569,14.569,0,0,0,419.543,212.1Z" transform="translate(-413.719 -193.438)"/>
                                  </g>
                                </g>
                              </g>
                            </g>
                          </g>
                        </g>
                      </g>
                    </g>
                  </g>
                  <g id="Group_234" data-name="Group 234" transform="translate(15.346 20.742)">
                    <g id="Group_233" data-name="Group 233">
                      <g id="Group_232" data-name="Group 232">
                        <g id="Group_231" data-name="Group 231">
                          <g id="Group_230" data-name="Group 230">
                            <g id="Group_229" data-name="Group 229">
                              <g id="Group_228" data-name="Group 228">
                                <g id="Group_227" data-name="Group 227">
                                  <g id="Group_226" data-name="Group 226">
                                    <path id="Path_84" data-name="Path 84" class="cls-2" d="M429.03,222.43c-.364.009-.169,2.43-2.1,4.32s-4.529,1.837-4.519,2.177c-.021.155.613.423,1.7.362a6.047,6.047,0,0,0,3.785-1.68,5.27,5.27,0,0,0,1.6-3.61C429.514,222.979,429.194,222.4,429.03,222.43Z" transform="translate(-422.411 -222.429)"/>
                                  </g>
                                </g>
                              </g>
                            </g>
                          </g>
                        </g>
                      </g>
                    </g>
                  </g>
                </g>
              </g>
            </g>
            <g id="Group_245" data-name="Group 245" transform="translate(20.68)">
              <g id="Group_244" data-name="Group 244">
                <g id="Group_243" data-name="Group 243">
                  <g id="Group_242" data-name="Group 242">
                    <g id="Group_241" data-name="Group 241">
                      <g id="Group_240" data-name="Group 240">
                        <g id="Group_239" data-name="Group 239">
                          <g id="Group_238" data-name="Group 238">
                            <path id="Path_85" data-name="Path 85" class="cls-2" d="M430.293,181.8c.271.588,2.473.117,5.116.215,2.645.046,4.818.637,5.12.064.134-.273-.282-.813-1.184-1.33a8.9,8.9,0,0,0-7.8-.213C430.619,181,430.175,181.515,430.293,181.8Z" transform="translate(-430.274 -179.735)"/>
                          </g>
                        </g>
                      </g>
                    </g>
                  </g>
                </g>
              </g>
            </g>
            <g id="Group_253" data-name="Group 253" transform="translate(0.252 2.977)">
              <g id="Group_252" data-name="Group 252">
                <g id="Group_251" data-name="Group 251">
                  <g id="Group_250" data-name="Group 250">
                    <g id="Group_249" data-name="Group 249">
                      <g id="Group_248" data-name="Group 248">
                        <g id="Group_247" data-name="Group 247">
                          <g id="Group_246" data-name="Group 246">
                            <path id="Path_86" data-name="Path 86" class="cls-2" d="M400.235,186.776c.434.474,1.927-.179,3.772-.357,1.839-.242,3.44.058,3.757-.5.136-.27-.152-.757-.875-1.18a5.486,5.486,0,0,0-6.066.692C400.213,186,400.042,186.542,400.235,186.776Z" transform="translate(-400.16 -184.124)"/>
                          </g>
                        </g>
                      </g>
                    </g>
                  </g>
                </g>
              </g>
            </g>
          </g>
        </g>
        <g id="Group_257" data-name="Group 257" transform="translate(49.181 8.655)">
          <g id="Group_256" data-name="Group 256">
            <path id="Path_87" data-name="Path 87" class="cls-2" d="M448.676,161.194l.084.056a11.456,11.456,0,0,1,4.855,7.031c.022.1.044.2.064.29.91,4.093,1.157,8.312,2.106,12.4s.775,7.2,4.864,8.124a5.446,5.446,0,0,0,5.7-2.314,3.554,3.554,0,0,0,.36-1.939c-.054-10.059,1.969-13.966,1.085-24.416a8.84,8.84,0,0,0-4.25-6.869c-2.319-1.387-5.125-2.792-7.461-1.44s-5.11,6.166-6.836,8.252" transform="translate(-448.676 -151.564)"/>
          </g>
        </g>
        <g id="Group_275" data-name="Group 275" transform="translate(61.906 39.11)">
          <g id="Group_265" data-name="Group 265">
            <g id="Group_264" data-name="Group 264">
              <g id="Group_263" data-name="Group 263">
                <g id="Group_262" data-name="Group 262">
                  <g id="Group_261" data-name="Group 261">
                    <g id="Group_260" data-name="Group 260">
                      <g id="Group_259" data-name="Group 259">
                        <g id="Group_258" data-name="Group 258">
                          <path id="Path_88" data-name="Path 88" class="cls-5" d="M467.434,197.216c.239-.128,9.728-3.775,10.232,6.174s-9.588,8.4-9.619,8.118S467.434,197.216,467.434,197.216Z" transform="translate(-467.434 -196.46)"/>
                        </g>
                      </g>
                    </g>
                  </g>
                </g>
              </g>
            </g>
          </g>
          <g id="Group_274" data-name="Group 274" transform="translate(3.453 3.157)">
            <g id="Group_273" data-name="Group 273">
              <g id="Group_272" data-name="Group 272">
                <g id="Group_271" data-name="Group 271">
                  <g id="Group_270" data-name="Group 270">
                    <g id="Group_269" data-name="Group 269">
                      <g id="Group_268" data-name="Group 268">
                        <g id="Group_267" data-name="Group 267">
                          <g id="Group_266" data-name="Group 266">
                            <path id="Path_89" data-name="Path 89" class="cls-6" d="M472.532,209.082c.042-.034.18.113.479.232a1.737,1.737,0,0,0,1.3-.039c1.031-.439,1.832-2.152,1.789-3.948a5.73,5.73,0,0,0-.61-2.456,2,2,0,0,0-1.371-1.264.884.884,0,0,0-1,.527c-.119.285-.046.48-.1.5-.026.026-.222-.156-.163-.571a1.114,1.114,0,0,1,.36-.644,1.312,1.312,0,0,1,.946-.3,2.439,2.439,0,0,1,1.889,1.451,5.891,5.891,0,0,1,.741,2.743c.037,2.007-.893,3.936-2.311,4.424a1.858,1.858,0,0,1-1.6-.183C472.562,209.322,472.5,209.1,472.532,209.082Z" transform="translate(-472.524 -201.114)"/>
                          </g>
                        </g>
                      </g>
                    </g>
                  </g>
                </g>
              </g>
            </g>
          </g>
        </g>
        <g id="Group_277" data-name="Group 277">
          <g id="Group_276" data-name="Group 276">
            <path id="Path_90" data-name="Path 90" class="cls-1" d="M433.223,149.516c2.114-4.171-5.051-9.317-10.076-10.456s-11.278,1.782-16.017,3.8c-2.991,1.274-5.937,2.951-9.186,3.084a21.946,21.946,0,0,1-6.422-1.082,16.1,16.1,0,0,0-6.451-.727,6.007,6.007,0,0,0-4.948,3.743c-.656,2.078.751,4.736,2.927,4.858a4.888,4.888,0,1,0-.552,9.137c-1.5-.952-3.517.993-3.2,2.741s2.023,2.9,3.7,3.475c4.288,1.475,9.064.5,13.228-1.3s7.95-4.37,12.067-6.269,11-5.265,15.385-4.115c3.23.847,5.726,4.445,7.429,3.464a6.087,6.087,0,0,0,2.771-4.721,17.631,17.631,0,0,0-.663-5.633" transform="translate(-376.175 -138.805)"/>
          </g>
        </g>
        <g id="Group_280" data-name="Group 280" transform="translate(5.651 2.782)">
          <g id="Group_279" data-name="Group 279">
            <g id="Group_278" data-name="Group 278">
              <path id="Path_91" data-name="Path 91" class="cls-8" d="M384.51,153.884c.079-.056.572.692,1.734,1.762a13.726,13.726,0,0,0,5.807,3.093,12.614,12.614,0,0,0,9.431-1.166c3.25-1.79,5.887-5.054,8.975-8.18,3.078-3.15,6.817-5.6,10.708-6.28a11.479,11.479,0,0,1,9.76,2.5,8.69,8.69,0,0,1,2.782,6.227,6.777,6.777,0,0,1-.277,1.859c-.147.4-.243.606-.274.6a16.219,16.219,0,0,0,.168-2.443,8.565,8.565,0,0,0-2.867-5.724A10.881,10.881,0,0,0,421.328,144c-3.628.682-7.171,3.008-10.177,6.084-3.031,3.057-5.75,6.41-9.232,8.278a13.538,13.538,0,0,1-15.943-2.445,9.255,9.255,0,0,1-1.162-1.46C384.586,154.1,384.481,153.9,384.51,153.884Z" transform="translate(-384.505 -142.907)"/>
            </g>
          </g>
        </g>
        <g id="Group_283" data-name="Group 283" transform="translate(55.072 13.755)">
          <g id="Group_282" data-name="Group 282">
            <g id="Group_281" data-name="Group 281">
              <path id="Path_92" data-name="Path 92" class="cls-8" d="M466.685,184.552c-.034.037-.45-.237-.891-.994A6.7,6.7,0,0,1,465,180c-.045-3.215,2.5-6.88,2.492-11.326a10.009,10.009,0,0,0-1.588-5.832,7.6,7.6,0,0,0-3.951-2.88,6.475,6.475,0,0,0-3.35-.176c-.786.193-1.2.414-1.243.338-.027-.039.322-.38,1.133-.7a6.2,6.2,0,0,1,3.646-.127,8.027,8.027,0,0,1,4.505,3.027,10.56,10.56,0,0,1,1.832,6.366,18.131,18.131,0,0,1-1.4,6.412,18.881,18.881,0,0,0-1.385,4.941A7.68,7.68,0,0,0,466.685,184.552Z" transform="translate(-457.36 -159.083)"/>
            </g>
          </g>
        </g>
      </g>
    </g>
    <g id="Group_287" data-name="Group 287" transform="translate(126.601 131.173)">
      <g id="Group_286" data-name="Group 286">
        <path id="Path_93" data-name="Path 93" class="cls-2" d="M516.86,332.174s.018.133.039.395.049.659.088,1.169c.073,1.038.18,2.564.319,4.549.269,3.988.661,9.813,1.159,17.2s1.081,16.34,1.757,26.563q.252,3.834.519,7.9c.1,1.353.152,2.736.214,4.134a20.548,20.548,0,0,1-.017,2.113,20.986,20.986,0,0,1-.121,2.138q-.131,1.07-.264,2.155-.23,1.068-.461,2.15c-.2.709-.446,1.412-.67,2.125-.312.679-.571,1.389-.938,2.051a12.314,12.314,0,0,1-6.724,6.128l-.013,0h-.024l-66.36-.014-21.045-.012h-.231l.062-.222,1.911-6.815q.474-1.69.944-3.365a23.725,23.725,0,0,0,.786-3.347,14.57,14.57,0,0,0-.584-6.664,8.258,8.258,0,0,0-1.584-2.863,4.681,4.681,0,0,0-2.7-1.589l-1.391-.216,1.389-.117,25.065-2.106-.078.029a8.56,8.56,0,0,1,5.4-1.659,10.816,10.816,0,0,1,5.229,1.663l-.11-.023,21.25-4.026-.1.162a9.1,9.1,0,0,1-.366-2.5,21.6,21.6,0,0,1,.067-2.427,38.893,38.893,0,0,1,.644-4.58l.011.077-4.707-8.776-.011-.02v-.022c-.334-7.819-.45-13.984-.395-18.192.023-2.1.1-3.719.216-4.8a8.462,8.462,0,0,1,.18-1.222c.059-.271.1-.406.1-.406s-.019.14-.069.412a9.39,9.39,0,0,0-.154,1.22c-.095,1.083-.159,2.7-.165,4.8-.023,4.2.123,10.367.485,18.182l-.012-.041c1.449,2.68,3.019,5.586,4.735,8.761l.02.035-.008.041a39.014,39.014,0,0,0-.628,4.552,21.65,21.65,0,0,0-.06,2.4,8.883,8.883,0,0,0,.359,2.426l.044.136-.139.026-21.241,4.067-.056.011-.054-.034a10.543,10.543,0,0,0-5.075-1.6,8.248,8.248,0,0,0-5.205,1.608l-.036.026-.042,0-25.063,2.133,0-.334a4.977,4.977,0,0,1,2.931,1.7,8.588,8.588,0,0,1,1.655,2.979,14.9,14.9,0,0,1,.6,6.822,24.1,24.1,0,0,1-.793,3.392l-.942,3.365-1.908,6.816-.168-.222,21.045.008,66.36.051-.037,0a10.111,10.111,0,0,0,3.849-2.374,14.379,14.379,0,0,0,2.681-3.589c.361-.649.617-1.348.924-2.015.221-.7.461-1.4.663-2.094q.23-1.068.458-2.124.133-1.074.265-2.133a44.217,44.217,0,0,0,.144-4.218c-.06-1.389-.108-2.76-.207-4.117q-.259-4.068-.5-7.9c-.648-10.226-1.215-19.177-1.684-26.57s-.821-13.214-1.07-17.2c-.118-1.986-.208-3.513-.27-4.552q-.042-.766-.063-1.169C516.86,332.308,516.86,332.174,516.86,332.174Z" transform="translate(-421.527 -332.174)"/>
      </g>
    </g>
    <g id="Group_289" data-name="Group 289" transform="translate(182.855 94.208)">
      <g id="Group_288" data-name="Group 288">
        <path id="Path_94" data-name="Path 94" class="cls-2" d="M524.323,277.684c.014.027-.429.273-1.208.75a28.215,28.215,0,0,0-3.139,2.249,36.89,36.89,0,0,0-8.129,9.728,80.744,80.744,0,0,0-5.428,11.545c-.581,1.49-1.057,2.713-1.408,3.613l-.393.979a1.416,1.416,0,0,1-.159.333,1.471,1.471,0,0,1,.093-.357l.331-1c.3-.867.733-2.119,1.3-3.654a72.577,72.577,0,0,1,5.358-11.637,35.364,35.364,0,0,1,8.276-9.742,24.186,24.186,0,0,1,3.226-2.173c.4-.233.724-.377.938-.487A1.462,1.462,0,0,1,524.323,277.684Z" transform="translate(-504.455 -277.683)"/>
      </g>
    </g>
    <g id="Group_291" data-name="Group 291" class="cls-9" transform="translate(162.712 120.111)">
      <g id="Group_290" data-name="Group 290">
        <path id="Path_95" data-name="Path 95" d="M488.219,315.867a44.941,44.941,0,0,0-3.792,20.289c.254,6.9,1.083,13.811.408,20.678s-3.063,13.877-8.185,18.5A6.669,6.669,0,0,0,475,377.173a1.871,1.871,0,0,0,.317,2.273,2.705,2.705,0,0,0,2.131.221c4.909-.853,9.871-1.46,14.78-2.314,1.051-.182,4.59-.874,4.59-.874a19.163,19.163,0,0,1-.3-4.035c.156-1.228.636-5.408.636-5.408a7.35,7.35,0,0,0-.94-1.746,40.249,40.249,0,0,1-4.069-10.44,47.367,47.367,0,0,1-3.2-10.077c-2.154-8.89-2.091-17.648-.72-28.906" transform="translate(-474.76 -315.867)"/>
      </g>
    </g>
    <g id="Group_293" data-name="Group 293" class="cls-9" transform="translate(122.319 105.087)">
      <g id="Group_292" data-name="Group 292">
        <path id="Path_96" data-name="Path 96" d="M415.292,298.619q.6,1.527,1.208,3.055a1.228,1.228,0,0,0,.587.771c.6.233,1.085-.511,1.372-1.089a7.843,7.843,0,0,1,6.018-4.23c2.061-.237,4.178.361,6.21-.062a27.741,27.741,0,0,0-5.6-2.789,9.329,9.329,0,0,0-6.151-.058,5.675,5.675,0,0,0-3.717,4.636" transform="translate(-415.215 -293.72)"/>
      </g>
    </g>
    <g id="Group_295" data-name="Group 295" class="cls-9" transform="translate(138.785 92.218)">
      <g id="Group_294" data-name="Group 294">
        <path id="Path_97" data-name="Path 97" d="M439.871,289.943a33.359,33.359,0,0,1,7.184.645,11.21,11.21,0,0,1,6.152,3.545c1.64,2,2.254,4.621,2.914,7.121.127.48.359,1.051.853,1.106a1.22,1.22,0,0,0,.813-.324,23.731,23.731,0,0,0,8.2-12.361,54.124,54.124,0,0,0,1.886-14.927c-1.938,3.464-2.781,7.414-4.061,11.173s-3.171,7.545-6.495,9.715a3.256,3.256,0,0,0-.757-2.382,7.192,7.192,0,0,0-1.977-1.616,18.852,18.852,0,0,0-15.1-1.849" transform="translate(-439.488 -274.749)"/>
      </g>
    </g>
    <g id="Group_301" data-name="Group 301" transform="translate(78.278 181.148)">
      <g id="Group_296" data-name="Group 296">
        <path id="Path_98" data-name="Path 98" class="cls-5" d="M400.636,412.013H392.33s-18.743-6.772-22.6-6.125c-3.471.583-16.179,9.025-18.668,10.7a1.579,1.579,0,0,0-.6.768h0a2.725,2.725,0,0,0,1.515,3.463l.263.109-.114.378a4.507,4.507,0,0,0-.191,1.517,1.832,1.832,0,0,0,3.4.791l-.48.851a2.092,2.092,0,0,0-.265,1.138l.043.773a2.085,2.085,0,0,0,1.436,1.867h0a2.076,2.076,0,0,0,2.182-.573c1.612-1.773,5.093-5.324,7.448-5.716a55.239,55.239,0,0,1,7.693-.386,2.608,2.608,0,0,1,2.418,1.665h0c-1.4.1-11.136,5.179-14.583,7a3.685,3.685,0,0,0-2,2.773c-.126,1.079.419,2.209,2.553,1.711,4.579-1.069,12.82-4.858,12.82-4.858s4.251-1.215,7,.729c3.873,2.732,5.648,3.735,8.975,2.632a28.145,28.145,0,0,0,5.779-2.686l6.553-.654S409.108,414.387,400.636,412.013Z" transform="translate(-350.292 -405.845)"/>
      </g>
      <g id="Group_298" data-name="Group 298" transform="translate(4.839 8.524)">
        <g id="Group_297" data-name="Group 297">
          <path id="Path_99" data-name="Path 99" class="cls-6" d="M378.18,419.22c-.016.071-1.33-.35-3.521-.489A18.179,18.179,0,0,0,359.51,425.2c-1.416,1.678-2.021,2.918-2.083,2.88a4.3,4.3,0,0,1,.417-.867,15.9,15.9,0,0,1,1.474-2.172,17.625,17.625,0,0,1,15.36-6.555,15.834,15.834,0,0,1,2.588.439A4.3,4.3,0,0,1,378.18,419.22Z" transform="translate(-357.426 -418.41)"/>
        </g>
      </g>
      <g id="Group_300" data-name="Group 300" transform="translate(1.947 3.868)">
        <g id="Group_299" data-name="Group 299">
          <path id="Path_100" data-name="Path 100" class="cls-6" d="M374.824,412.46a15.433,15.433,0,0,0-3.665-.639,15.987,15.987,0,0,0-8.524,2.414,34.329,34.329,0,0,0-6.87,5.811l-1.882,2a5.569,5.569,0,0,1-.719.71,5.532,5.532,0,0,1,.616-.8c.414-.5,1.024-1.216,1.8-2.08a31.55,31.55,0,0,1,6.87-5.944,15.6,15.6,0,0,1,8.717-2.361,10.406,10.406,0,0,1,2.721.5,6.22,6.22,0,0,1,.7.27C374.749,412.408,374.829,412.449,374.824,412.46Z" transform="translate(-353.163 -411.547)"/>
        </g>
      </g>
    </g>
  </g>
  <g id="Group_318" data-name="Group 318" transform="translate(95.539 149.711)">
    <g id="Group_303" data-name="Group 303" transform="translate(0 0)">
      <path id="Path_101" data-name="Path 101" class="cls-1" d="M240.806,426.191l-22.509-56.5a7.386,7.386,0,0,1,6.834-10.187h70.122a7.386,7.386,0,0,1,6.994,5.012l19.336,56.992,22.58.109c1.834.008,3.316,2.692,3.316,4.526h0l-24.854-.286Z" transform="translate(-217.739 -359.502)"/>
    </g>
    <g id="Group_317" data-name="Group 317" transform="translate(46.365 31.122)">
      <path id="Path_107" data-name="Path 107" class="cls-10" d="M295.2,409.934a4.555,4.555,0,1,1-4.554-4.554A4.555,4.555,0,0,1,295.2,409.934Z" transform="translate(-286.088 -405.38)"/>
    </g>
  </g>
</svg>
